<svg xmlns="http://www.w3.org/2000/svg" width="20" height="16" viewBox="0 0 20 16">
  <defs>
    <style>
      .cls-1 {
        fill: #1183d3;
        fill-rule: evenodd;
      }
    </style>
  </defs>
  <path id="Ellipse_2_copy_2" data-name="Ellipse 2 copy 2" class="cls-1" d="M681,1642h20v16H681v-16Zm2,2h16v12H683v-12Zm0,5a5.468,5.468,0,0,1-1-.1v-2.08a2.98,2.98,0,0,0,4-2.82,2.957,2.957,0,0,0-.184-1H687.9A5,5,0,0,1,683,1649Zm16,0a5.477,5.477,0,0,0,1-.1v-2.08a2.98,2.98,0,0,1-4-2.82,2.957,2.957,0,0,1,.184-1H694.1A5,5,0,0,0,699,1649Zm-16,2a5.468,5.468,0,0,0-1,.1v2.08a2.98,2.98,0,0,1,4,2.82,2.957,2.957,0,0,1-.184,1H687.9A5,5,0,0,0,683,1651Zm16,0a5.477,5.477,0,0,1,1,.1v2.08a2.98,2.98,0,0,0-4,2.82,2.957,2.957,0,0,0,.184,1H694.1A5,5,0,0,1,699,1651Zm-8-3a2,2,0,1,1-2,2A2,2,0,0,1,691,1648Z" transform="translate(-681 -1642)"/>
</svg>
