<svg xmlns="http://www.w3.org/2000/svg" width="19.969" height="16" viewBox="0 0 19.969 16">
  <defs>
    <style>
      .cls-1 {
        fill: #1183d3;
        fill-rule: evenodd;
      }
    </style>
  </defs>
  <path id="Rounded_Rectangle_3_copy" data-name="Rounded Rectangle 3 copy" class="cls-1" d="M681.72,1505h13.969a3,3,0,0,1,3,3v10a3,3,0,0,1-3,3H681.72a3,3,0,0,1-3-3v-10A3,3,0,0,1,681.72,1505Zm0,2h13.969a1,1,0,0,1,1,1v10a1,1,0,0,1-1,1H681.72a1,1,0,0,1-1-1v-10A1,1,0,0,1,681.72,1507Zm4.826,7.11-6.725-6.74a1.977,1.977,0,0,1,1.515-1.33l6.634,6.64a1.013,1.013,0,0,0,1.424,0l6.636-6.65a2,2,0,0,1,1.536,1.32l-6.748,6.76A3.02,3.02,0,0,1,686.546,1514.11Z" transform="translate(-678.719 -1505)"/>
</svg>
